<!--Created with Inkscape (http://www.inkscape.org/)--><svg width="705.711" height="499.369" viewBox="0 0 186.719 132.125" xmlns="http://www.w3.org/2000/svg"><path style="fill:none;stroke:#000;stroke-width:.556454" d="M120.14 21.752a22.147 22.147 0 0 0-1.606.637 21.283 21.283 0 0 0-2.326 1.212 20.856 20.856 0 0 0-3.387 2.544 22.24 22.24 0 0 0-1.758 1.808c-.369.423-.723.86-1.064 1.31-.34.45-.668.912-.982 1.386-.314.475-.614.96-.902 1.458a31.68 31.68 0 0 0-.827 1.52 34.851 34.851 0 0 0-.754 1.582c-.24.536-.468 1.08-.685 1.633a42.406 42.406 0 0 0-.618 1.68c-.196.566-.38 1.14-.556 1.72-.175.579-.34 1.164-.496 1.754a57.06 57.06 0 0 0-.44 1.784 62.81 62.81 0 0 0-.724 3.629 75.785 75.785 0 0 0-.539 3.671 91.11 91.11 0 0 0-.378 3.665c-.052.608-.098 1.213-.138 1.815a125.29 125.29 0 0 0-.188 3.567c-.021.534-.03 1.045-.044 1.57h62.11c30.812-.163 36.754-11.176 36.513-39.945zM102.389 117.558c.011.173.02.355.032.526.07.961.148 1.9.235 2.816.087.915.184 1.81.29 2.68.106.871.222 1.72.349 2.547.126.827.263 1.631.412 2.415.148.784.308 1.546.48 2.287.172.74.356 1.461.552 2.16.197.7.406 1.378.629 2.036a34.925 34.925 0 0 0 1.095 2.827 29.287 29.287 0 0 0 .837 1.736 25.983 25.983 0 0 0 .93 1.62 23.591 23.591 0 0 0 1.023 1.507 21.953 21.953 0 0 0 1.724 2.052 20.894 20.894 0 0 0 3.409 2.887 22.505 22.505 0 0 0 1.563.974 24.438 24.438 0 0 0 1.684.874 27.208 27.208 0 0 0 1.81.778 30.954 30.954 0 0 0 1.938.682 35.712 35.712 0 0 0 2.07.591 47.433 47.433 0 0 0 3.366.717c.785.138 1.593.26 2.425.37.832.109 1.688.204 2.57.285.883.081 1.79.149 2.725.203.933.055 1.893.096 2.88.124.549.016 1.126.018 1.692.026V109.62c17.345-.197 26.762-11.448 26.793-29.732h-63.48v37.669Z" transform="translate(-13.917 -21.473)"/><path style="fill:none;stroke:#000;stroke-width:.556454" d="M102.612 21.752H51.24c-28.6.039-37.26 14.733-37.042 42.061v53.745c-.035 21.777 4.968 36.148 42.54 35.754h45.904c-.006-.482-.004-.97-.014-1.45a126.31 126.31 0 0 0-.128-3.734 97.727 97.727 0 0 0-.108-1.837 83.94 83.94 0 0 0-.145-1.813c-.054-.6-.115-1.194-.183-1.784a63.19 63.19 0 0 0-.227-1.754 55.218 55.218 0 0 0-.275-1.719c-.1-.567-.209-1.128-.327-1.682a42.893 42.893 0 0 0-.382-1.64 38.027 38.027 0 0 0-.443-1.597 33.903 33.903 0 0 0-.507-1.548 30.479 30.479 0 0 0-.575-1.498c-.203-.49-.419-.972-.647-1.444-.229-.472-.47-.934-.724-1.386a23.342 23.342 0 0 0-.805-1.326 20.928 20.928 0 0 0-2.94-3.58 20.175 20.175 0 0 0-3.114-2.48 21.392 21.392 0 0 0-1.43-.852 22.68 22.68 0 0 0-2.356-1.117 25.617 25.617 0 0 0-1.716-.632 28.282 28.282 0 0 0-1.839-.54c-.317-.081-.639-.16-.966-.233-.17-.038-.344-.072-.516-.108H73.23c-16.675-.215-17.313-5.65-17.55-16.404V81.425c.523-18.666 2.293-19.583 16.405-19.729h9.288c.276-.06.55-.123.82-.19a28.167 28.167 0 0 0 1.817-.523 25.748 25.748 0 0 0 1.71-.624 23.896 23.896 0 0 0 1.604-.723 22.584 22.584 0 0 0 2.216-1.265 21.477 21.477 0 0 0 3.789-3.139c.375-.391.736-.796 1.083-1.215.347-.419.68-.85 1-1.296.32-.444.626-.902.919-1.372.293-.47.573-.953.84-1.447.268-.494.523-1 .767-1.516.243-.517.475-1.046.695-1.585.22-.54.428-1.09.626-1.65.198-.56.386-1.13.562-1.711.177-.58.343-1.171.5-1.77.157-.6.304-1.21.442-1.827.138-.618.266-1.244.386-1.879s.231-1.278.334-1.928c.103-.651.198-1.31.285-1.976.088-.666.167-1.34.24-2.02a110.236 110.236 0 0 0 .476-6.292c.035-.716.065-1.438.09-2.165.02-.603.023-1.222.037-1.831z" transform="translate(-13.917 -21.473)"/><path style="fill:none;stroke:#000;stroke-width:.556454" d="M82.276 117.558c.172.036.347.07.516.108a31.677 31.677 0 0 1 1.901.491 28.231 28.231 0 0 1 1.777.586 25.617 25.617 0 0 1 1.657.678 23.555 23.555 0 0 1 1.542.766 21.957 21.957 0 0 1 2.105 1.309 20.563 20.563 0 0 1 1.867 1.489 20.175 20.175 0 0 1 1.644 1.659 20.928 20.928 0 0 1 1.868 2.456c.282.432.55.874.805 1.326.254.452.495.914.724 1.386.228.472.444.954.647 1.444.204.49.395.99.575 1.498.18.508.35 1.024.507 1.548.158.525.306 1.057.443 1.597s.264 1.087.382 1.64c.118.554.227 1.115.327 1.682s.191 1.14.275 1.719c.083.579.159 1.164.227 1.754.068.59.13 1.184.184 1.784.054.6.102 1.204.144 1.813.042.608.077 1.22.108 1.837.062 1.232.103 2.478.128 3.735.01.48.008.967.014 1.45h36.466v-.035c-.566-.008-1.143-.01-1.693-.026a97.614 97.614 0 0 1-2.88-.124 81.12 81.12 0 0 1-2.723-.203 67.512 67.512 0 0 1-2.571-.285 56.467 56.467 0 0 1-2.424-.37 47.433 47.433 0 0 1-3.366-.717 38.575 38.575 0 0 1-2.071-.59 33.188 33.188 0 0 1-1.939-.683 28.93 28.93 0 0 1-1.809-.777 25.703 25.703 0 0 1-1.684-.875 23.367 23.367 0 0 1-1.563-.974 21.847 21.847 0 0 1-1.448-1.076 21.011 21.011 0 0 1-3.685-3.863 22.67 22.67 0 0 1-1.024-1.507 24.671 24.671 0 0 1-.929-1.62 27.493 27.493 0 0 1-.837-1.736 34.925 34.925 0 0 1-1.095-2.827 40.869 40.869 0 0 1-.629-2.036c-.196-.699-.38-1.42-.552-2.16a57.69 57.69 0 0 1-.48-2.287 69.321 69.321 0 0 1-.412-2.415 83.842 83.842 0 0 1-.35-2.547c-.105-.87-.202-1.764-.29-2.68a124.58 124.58 0 0 1-.234-2.816c-.012-.171-.02-.353-.032-.526zM102.612 21.752c-.014.609-.018 1.228-.038 1.831a144.851 144.851 0 0 1-.21 4.299 110.072 110.072 0 0 1-.355 4.158c-.073.68-.152 1.354-.24 2.02a74.828 74.828 0 0 1-.285 1.976c-.103.65-.214 1.293-.334 1.928-.12.635-.248 1.261-.386 1.879a51.849 51.849 0 0 1-.442 1.826c-.157.6-.323 1.19-.5 1.77-.176.581-.364 1.152-.562 1.712-.198.56-.406 1.11-.626 1.65-.22.539-.452 1.068-.695 1.585a29.967 29.967 0 0 1-.767 1.516c-.267.494-.547.977-.84 1.447-.293.47-.6.928-.92 1.372a22.455 22.455 0 0 1-3.255 3.644 21.365 21.365 0 0 1-4.068 2.873 22.584 22.584 0 0 1-1.553.772 23.896 23.896 0 0 1-1.656.674 25.757 25.757 0 0 1-1.764.573 28.16 28.16 0 0 1-1.742.44h20.354c.015-.525.023-1.036.044-1.57.045-1.17.106-2.362.188-3.567a109.147 109.147 0 0 1 .309-3.644 91.327 91.327 0 0 1 .455-3.674 75.983 75.983 0 0 1 .628-3.656c.12-.605.25-1.207.387-1.806a57.06 57.06 0 0 1 .44-1.784c.156-.59.321-1.175.496-1.755.175-.58.36-1.153.556-1.72.195-.567.401-1.127.618-1.68.217-.552.445-1.096.685-1.632.24-.536.49-1.064.754-1.581a31.68 31.68 0 0 1 .827-1.521c.288-.497.588-.983.902-1.458.314-.474.641-.936.982-1.386a24.669 24.669 0 0 1 1.628-1.934 22.768 22.768 0 0 1 1.824-1.741 21.356 21.356 0 0 1 2.757-1.987 20.865 20.865 0 0 1 2.326-1.212 21.625 21.625 0 0 1 1.606-.637z" transform="translate(-13.917 -21.473)"/></svg>
