<?xml version="1.0" encoding="UTF-8" standalone="no"?>
<!-- Created with Inkscape (http://www.inkscape.org/) -->

<svg
   width="186.71935mm"
   height="132.1248mm"
   viewBox="0 0 186.71935 132.1248"
   version="1.1"
   id="svg5"
   inkscape:version="1.2.2 (732a01da63, 2022-12-09)"
   sodipodi:docname="cfLogoFile2.svg"
   inkscape:export-filename="..\Documents\CODING\REACT\portfolio-web\client\src\assets\images\cfLogo.svg"
   inkscape:export-xdpi="300"
   inkscape:export-ydpi="300"
   xmlns:inkscape="http://www.inkscape.org/namespaces/inkscape"
   xmlns:sodipodi="http://sodipodi.sourceforge.net/DTD/sodipodi-0.dtd"
   xmlns="http://www.w3.org/2000/svg"
   xmlns:svg="http://www.w3.org/2000/svg">
  <sodipodi:namedview
     id="namedview7"
     pagecolor="#ffffff"
     bordercolor="#666666"
     borderopacity="1.0"
     inkscape:showpageshadow="2"
     inkscape:pageopacity="0.0"
     inkscape:pagecheckerboard="0"
     inkscape:deskcolor="#d1d1d1"
     inkscape:document-units="mm"
     showgrid="false"
     inkscape:zoom="0.775"
     inkscape:cx="320.64516"
     inkscape:cy="300"
     inkscape:window-width="1280"
     inkscape:window-height="658"
     inkscape:window-x="-6"
     inkscape:window-y="-6"
     inkscape:window-maximized="1"
     inkscape:current-layer="layer1" />
  <defs
     id="defs2" />
  <g
     inkscape:label="Layer 1"
     inkscape:groupmode="layer"
     id="layer1"
     transform="translate(-13.916905,-21.473417)">
    <g
       id="g1311"
       inkscape:label="F-Section">
      <path
         id="rect950-1"
         style="fill:#545e96;stroke:#000000;stroke-width:0.556454"
         d="m 120.13995,21.751644 c -0.26316,0.09293 -0.52349,0.188614 -0.77928,0.289905 -0.27988,0.110832 -0.55513,0.22666 -0.8263,0.347265 -0.27118,0.120605 -0.53839,0.246078 -0.80099,0.376205 -0.2626,0.130126 -0.52098,0.265229 -0.77514,0.404626 -0.25417,0.139398 -0.50396,0.28308 -0.74983,0.431498 -0.24587,0.148418 -0.48783,0.301182 -0.72554,0.45837 -0.2377,0.157188 -0.47105,0.319018 -0.70073,0.484725 -0.22968,0.165708 -0.45569,0.335553 -0.67748,0.50953 -0.22179,0.173977 -0.43967,0.351822 -0.6537,0.533817 -0.21404,0.181996 -0.42404,0.367826 -0.63046,0.557589 -0.20642,0.189764 -0.40929,0.383562 -0.60823,0.580843 -0.19894,0.197282 -0.3939,0.397999 -0.58549,0.602547 -0.1916,0.204549 -0.37941,0.412686 -0.56379,0.624252 -0.36877,0.423131 -0.72327,0.860302 -1.06402,1.309997 -0.34075,0.449696 -0.66803,0.912223 -0.98185,1.386479 -0.31383,0.474256 -0.61428,0.960463 -0.90227,1.457275 -0.28799,0.496813 -0.56358,1.003989 -0.82683,1.521355 -0.26324,0.517365 -0.51437,1.044866 -0.75395,1.580782 -0.23959,0.535915 -0.4677,1.080514 -0.68472,1.632975 -0.21701,0.552461 -0.42303,1.112481 -0.61856,1.679484 -0.19554,0.567002 -0.38037,1.140768 -0.55553,1.720308 -0.17515,0.579541 -0.34024,1.164857 -0.49609,1.754932 -0.15585,0.590075 -0.30264,1.185265 -0.44028,1.78387 -0.13765,0.598606 -0.26653,1.20096 -0.38706,1.806092 -0.12053,0.605132 -0.23243,1.212973 -0.33693,1.822628 -0.1045,0.609654 -0.20138,1.220788 -0.29094,1.832963 -0.0896,0.612174 -0.17182,1.225441 -0.24753,1.83813 -0.0757,0.61269 -0.14478,1.224863 -0.20774,1.836064 -0.063,0.611201 -0.11976,1.22112 -0.17105,1.828829 -0.0513,0.607709 -0.0973,1.21318 -0.13797,1.815393 -0.0814,1.204426 -0.14247,2.39577 -0.1881,3.56619 -0.0208,0.534058 -0.0287,1.045384 -0.0434,1.569931 h 62.11042 c 30.81178,-0.162058 36.75326,-11.175915 36.5125,-39.944849 z" />
      <path
         id="path1297"
         style="fill:#545e96;stroke:#000000;stroke-width:0.556454"
         d="m 102.38858,117.5582 c 0.0118,0.17254 0.0202,0.35447 0.0326,0.52555 0.0695,0.96155 0.14748,1.89996 0.23461,2.81585 0.0871,0.91588 0.18371,1.80946 0.2899,2.68045 0.1062,0.871 0.22215,1.71972 0.34882,2.54662 0.12667,0.82689 0.26382,1.63178 0.41238,2.41535 0.14856,0.78358 0.30821,1.54565 0.48007,2.28669 0.17186,0.74103 0.35586,1.46131 0.55242,2.16059 0.19657,0.69928 0.40571,1.37775 0.62839,2.03605 0.22268,0.6583 0.4588,1.29599 0.709,1.91409 0.1251,0.30906 0.25378,0.61346 0.38602,0.91261 0.13225,0.29915 0.26816,0.59329 0.40773,0.88263 0.13957,0.28935 0.28288,0.57354 0.42995,0.85318 0.14706,0.27964 0.29794,0.55473 0.45268,0.82476 0.15474,0.27003 0.31335,0.5353 0.47594,0.79582 0.16259,0.26051 0.3291,0.51628 0.49971,0.76739 0.17062,0.25111 0.34518,0.4977 0.524,0.73949 0.17882,0.24179 0.36213,0.4785 0.54932,0.71107 0.1872,0.23257 0.37838,0.46074 0.57413,0.68419 0.19575,0.22345 0.396,0.44238 0.60048,0.65681 0.20448,0.21443 0.41345,0.42443 0.62683,0.62994 0.21339,0.2055 0.43124,0.40638 0.65371,0.60306 0.22247,0.19668 0.44937,0.38928 0.6811,0.57723 0.23173,0.18794 0.46835,0.37155 0.70951,0.55087 0.24117,0.17931 0.48717,0.35425 0.73794,0.52503 0.25078,0.17078 0.50632,0.33737 0.76688,0.49971 0.26057,0.16234 0.52581,0.32039 0.79633,0.47439 0.27053,0.15401 0.54616,0.30382 0.82683,0.44959 0.28067,0.14576 0.56632,0.28767 0.85731,0.42529 0.29099,0.13762 0.58736,0.27092 0.88883,0.40049 0.30148,0.12958 0.60822,0.2551 0.92036,0.37673 0.31215,0.12162 0.62992,0.23917 0.95292,0.35295 0.32299,0.11377 0.65145,0.22367 0.98546,0.32969 0.33402,0.10603 0.67334,0.20859 1.01855,0.30696 0.34521,0.0984 0.69606,0.19289 1.05265,0.2837 0.35658,0.0908 0.71914,0.17762 1.08727,0.26097 0.73626,0.1667 1.49541,0.31885 2.27893,0.4563 0.78351,0.13745 1.59145,0.26051 2.42362,0.36949 0.83218,0.10898 1.68866,0.20396 2.57091,0.28525 0.88225,0.0813 1.79013,0.1487 2.72386,0.20309 0.93373,0.0544 1.89331,0.0958 2.87993,0.12402 0.54922,0.0157 1.12697,0.018 1.69292,0.0258 V 109.6207 c 17.34487,-0.19694 26.76148,-11.447897 26.79268,-29.732036 H 102.42217 V 98.723173 117.5582 Z" />
    </g>
    <g
       id="g1314"
       inkscape:label="C-Section">
      <path
         id="path1293"
         style="fill:#ffb066;stroke:#000000;stroke-width:0.556454"
         d="M 102.61182,21.751644 H 51.2408 C 22.641462,21.790925 13.981185,36.484609 14.199133,63.813159 V 117.5582 c -0.03477,21.77649 4.968135,36.14774 42.540556,35.75389 h 45.903661 c -0.006,-0.48257 -0.004,-0.96958 -0.014,-1.44952 -0.0256,-1.25624 -0.0665,-2.50245 -0.12815,-3.73466 -0.0308,-0.61611 -0.0666,-1.22864 -0.10852,-1.8371 -0.0419,-0.60846 -0.0898,-1.21308 -0.14418,-1.81281 -0.0544,-0.59972 -0.11525,-1.19449 -0.18345,-1.78438 -0.0682,-0.5899 -0.14396,-1.17494 -0.22738,-1.7539 -0.0834,-0.57897 -0.17492,-1.15181 -0.27492,-1.71876 -0.1,-0.56695 -0.20863,-1.12771 -0.32659,-1.68155 -0.11796,-0.55384 -0.24511,-1.10109 -0.38241,-1.64073 -0.13729,-0.53963 -0.28434,-1.07195 -0.44235,-1.59628 -0.158,-0.52434 -0.32685,-1.04028 -0.506944,-1.54823 -0.180092,-0.50794 -0.371605,-1.00764 -0.575158,-1.4981 -0.203554,-0.49046 -0.419116,-0.97196 -0.647506,-1.44384 -0.228391,-0.47188 -0.469384,-0.93426 -0.723987,-1.38648 -0.254603,-0.45221 -0.522929,-0.89405 -0.805119,-1.3255 -0.28219,-0.43145 -0.578198,-0.85234 -0.889351,-1.26194 -0.311153,-0.40959 -0.637261,-0.80811 -0.978752,-1.19476 -0.341491,-0.38664 -0.698565,-0.76136 -1.071769,-1.12396 -0.186602,-0.1813 -0.37727,-0.35977 -0.572058,-0.53485 -0.194789,-0.17508 -0.393716,-0.347 -0.596863,-0.51573 -0.203146,-0.16873 -0.410507,-0.33437 -0.622184,-0.49661 -0.211677,-0.16224 -0.427644,-0.32084 -0.648023,-0.47646 -0.220378,-0.15561 -0.445124,-0.30796 -0.674377,-0.45682 -0.229253,-0.14885 -0.462951,-0.29419 -0.701249,-0.43615 -0.238299,-0.14195 -0.481122,-0.28056 -0.728638,-0.41547 -0.247516,-0.13492 -0.499637,-0.26655 -0.756543,-0.3943 -0.256906,-0.12774 -0.519014,-0.25163 -0.785482,-0.37207 -0.266467,-0.12043 -0.537703,-0.23737 -0.813903,-0.35036 -0.276201,-0.11299 -0.557254,-0.22222 -0.84336,-0.32763 -0.286106,-0.10541 -0.577148,-0.20669 -0.873332,-0.30437 -0.296183,-0.0977 -0.597387,-0.19181 -0.90382,-0.28164 -0.306433,-0.0898 -0.617973,-0.17551 -0.934827,-0.25735 -0.316854,-0.0818 -0.638902,-0.15987 -0.966349,-0.23358 -0.16932,-0.0381 -0.344061,-0.0721 -0.516248,-0.108 H 73.230672 C 56.555852,117.34288 55.918233,111.90822 55.681356,101.15403 V 81.425004 C 56.204029,62.758802 57.97385,61.841831 72.085522,61.696493 h 9.288839 c 0.27611,-0.06097 0.550429,-0.123671 0.819588,-0.191203 0.312096,-0.07831 0.61955,-0.161035 0.922425,-0.248047 0.302875,-0.08701 0.601247,-0.178291 0.895036,-0.273885 0.293788,-0.09559 0.583328,-0.195155 0.868164,-0.299207 0.284835,-0.104052 0.565276,-0.21266 0.841292,-0.325045 0.276016,-0.112384 0.547607,-0.228739 0.814937,-0.349332 0.26733,-0.120593 0.530321,-0.245461 0.789099,-0.374138 0.258778,-0.128676 0.513418,-0.261273 0.763778,-0.397908 0.25036,-0.136635 0.496382,-0.277211 0.738456,-0.42168 0.242075,-0.144469 0.480245,-0.292755 0.714169,-0.444934 0.233923,-0.152178 0.463457,-0.308425 0.689363,-0.468188 0.225906,-0.159763 0.448088,-0.323187 0.666109,-0.49041 0.218022,-0.167223 0.432067,-0.338072 0.642338,-0.51263 0.210272,-0.174558 0.416429,-0.352566 0.619084,-0.534334 0.202655,-0.181769 0.401691,-0.367185 0.596863,-0.556039 0.195171,-0.188854 0.38682,-0.38141 0.574642,-0.577225 0.375644,-0.391631 0.736607,-0.796705 1.083655,-1.21543 0.347047,-0.418726 0.679901,-0.850705 0.999422,-1.295528 0.31952,-0.444823 0.625745,-0.902603 0.918807,-1.372526 0.293062,-0.469923 0.573102,-0.952399 0.840775,-1.446424 0.267673,-0.494024 0.523009,-0.999574 0.766362,-1.516703 0.243352,-0.517129 0.474946,-1.045681 0.695048,-1.584916 0.220101,-0.539235 0.428399,-1.089168 0.626318,-1.649512 0.197919,-0.560343 0.385434,-1.131069 0.56224,-1.711523 0.176806,-0.580454 0.342949,-1.170868 0.499709,-1.770435 0.15676,-0.599567 0.30405,-1.208563 0.44184,-1.826245 0.13778,-0.617682 0.26614,-1.244156 0.38602,-1.878955 0.11988,-0.634799 0.2313,-1.277646 0.33434,-1.928564 0.10305,-0.650919 0.19798,-1.309551 0.28526,-1.97559 0.0873,-0.66604 0.16668,-1.339352 0.23926,-2.019515 0.0726,-0.680164 0.13794,-1.367567 0.19689,-2.060857 0.0589,-0.693289 0.11174,-1.392645 0.15813,-2.098063 0.0464,-0.705417 0.0865,-1.416655 0.12144,-2.133203 0.0349,-0.716547 0.0644,-1.438562 0.0889,-2.165242 0.0203,-0.603056 0.0239,-1.222009 0.0377,-1.831413 z" />
    </g>
    <g
       id="g1318"
       inkscape:label="Inbetween-Section">
      <path
         id="path1295"
         style="fill:none;stroke:none;stroke-width:0.556454"
         d="m 82.275598,117.5582 c 0.172187,0.0359 0.346928,0.0699 0.516248,0.108 0.327447,0.0737 0.649495,0.15174 0.966349,0.23358 0.316854,0.0818 0.628394,0.16752 0.934827,0.25735 0.306433,0.0898 0.607637,0.18395 0.90382,0.28164 0.296184,0.0977 0.587226,0.19896 0.873332,0.30437 0.286106,0.10541 0.567159,0.21464 0.84336,0.32763 0.2762,0.11299 0.547436,0.22993 0.813903,0.35036 0.266468,0.12044 0.528576,0.24433 0.785482,0.37207 0.256906,0.12775 0.509027,0.25938 0.756543,0.3943 0.247516,0.13491 0.490339,0.27352 0.728638,0.41547 0.238298,0.14196 0.471996,0.2873 0.701249,0.43615 0.229253,0.14886 0.453999,0.30121 0.674377,0.45682 0.220379,0.15562 0.436346,0.31422 0.648023,0.47646 0.211677,0.16224 0.419038,0.32788 0.622184,0.49661 0.203147,0.16873 0.402074,0.34065 0.596863,0.51573 0.194788,0.17508 0.385456,0.35355 0.572058,0.53485 0.373204,0.3626 0.730278,0.73732 1.071769,1.12396 0.341491,0.38665 0.667599,0.78517 0.978752,1.19476 0.311153,0.4096 0.607161,0.83049 0.889351,1.26194 0.28219,0.43145 0.550516,0.87329 0.805119,1.3255 0.254603,0.45222 0.495596,0.9146 0.723987,1.38648 0.22839,0.47188 0.443952,0.95338 0.647506,1.44384 0.203553,0.49046 0.395066,0.99016 0.575158,1.4981 0.180094,0.50795 0.348944,1.02389 0.506944,1.54823 0.15801,0.52433 0.30506,1.05665 0.44235,1.59628 0.1373,0.53964 0.26445,1.08689 0.38241,1.64073 0.11796,0.55384 0.22659,1.1146 0.32659,1.68155 0.1,0.56695 0.19151,1.13979 0.27492,1.71876 0.0834,0.57896 0.15917,1.164 0.22738,1.7539 0.0682,0.58989 0.12908,1.18466 0.18345,1.78438 0.0544,0.59973 0.10226,1.20435 0.14418,1.81281 0.0419,0.60846 0.0777,1.22099 0.10852,1.8371 0.0617,1.23221 0.10258,2.47842 0.12815,3.73466 0.01,0.47994 0.008,0.96695 0.014,1.44952 h 36.46599 v -0.0341 c -0.56595,-0.008 -1.1437,-0.0101 -1.69292,-0.0258 -0.98662,-0.0283 -1.9462,-0.0696 -2.87993,-0.12402 -0.93373,-0.0544 -1.84161,-0.12179 -2.72386,-0.20309 -0.88225,-0.0813 -1.73873,-0.17627 -2.57091,-0.28525 -0.83217,-0.10898 -1.64011,-0.23204 -2.42362,-0.36949 -0.78352,-0.13745 -1.54267,-0.2896 -2.27893,-0.4563 -0.36813,-0.0833 -0.73069,-0.17016 -1.08727,-0.26097 -0.35659,-0.0908 -0.70744,-0.18533 -1.05265,-0.2837 -0.34521,-0.0984 -0.68453,-0.20093 -1.01855,-0.30696 -0.33401,-0.10602 -0.66247,-0.21592 -0.98546,-0.32969 -0.323,-0.11378 -0.64077,-0.23133 -0.95292,-0.35295 -0.31214,-0.12163 -0.61888,-0.24715 -0.92036,-0.37673 -0.30147,-0.12957 -0.59784,-0.26287 -0.88883,-0.40049 -0.29099,-0.13762 -0.57664,-0.27953 -0.85731,-0.42529 -0.28067,-0.14577 -0.5563,-0.29558 -0.82683,-0.44959 -0.27052,-0.154 -0.53576,-0.31205 -0.79633,-0.47439 -0.26056,-0.16234 -0.5161,-0.32893 -0.76688,-0.49971 -0.25077,-0.17078 -0.49677,-0.34572 -0.73794,-0.52503 -0.24116,-0.17932 -0.47778,-0.36293 -0.70951,-0.55087 -0.23173,-0.18795 -0.45863,-0.38055 -0.6811,-0.57723 -0.22247,-0.19668 -0.44032,-0.39756 -0.65371,-0.60306 -0.21338,-0.20551 -0.42235,-0.41551 -0.62683,-0.62994 -0.20448,-0.21443 -0.40473,-0.43336 -0.60048,-0.65681 -0.19575,-0.22345 -0.38693,-0.45162 -0.57413,-0.68419 -0.18719,-0.23257 -0.3705,-0.46928 -0.54932,-0.71107 -0.17882,-0.24179 -0.35338,-0.48838 -0.524,-0.73949 -0.17061,-0.25111 -0.33712,-0.50688 -0.49971,-0.76739 -0.16259,-0.26052 -0.3212,-0.52579 -0.47594,-0.79582 -0.15474,-0.27003 -0.30562,-0.54512 -0.45268,-0.82476 -0.14707,-0.27964 -0.29038,-0.56383 -0.42995,-0.85318 -0.13957,-0.28934 -0.27548,-0.58348 -0.40773,-0.88263 -0.13224,-0.29915 -0.26092,-0.60355 -0.38602,-0.91261 -0.2502,-0.6181 -0.48632,-1.25579 -0.709,-1.91409 -0.22268,-0.6583 -0.43182,-1.33677 -0.62839,-2.03605 -0.19656,-0.69928 -0.38056,-1.41956 -0.55242,-2.16059 -0.17186,-0.74104 -0.33151,-1.50311 -0.48007,-2.28669 -0.14856,-0.78357 -0.28571,-1.58846 -0.41238,-2.41535 -0.12667,-0.8269 -0.24262,-1.67562 -0.34882,-2.54662 -0.10619,-0.87099 -0.20277,-1.76457 -0.2899,-2.68045 -0.0871,-0.91589 -0.16514,-1.8543 -0.23461,-2.81585 -0.0124,-0.17108 -0.0207,-0.35301 -0.0326,-0.52555 z" />
      <path
         id="path1291"
         style="fill:none;stroke:none;stroke-width:0.556454"
         d="m 102.61182,21.751644 c -0.0138,0.609404 -0.0174,1.228357 -0.0377,1.831413 -0.0245,0.72668 -0.054,1.448695 -0.0889,2.165242 -0.0349,0.716548 -0.0751,1.427786 -0.12144,2.133203 -0.0464,0.705418 -0.0992,1.404774 -0.15813,2.098063 -0.059,0.69329 -0.12431,1.380693 -0.19689,2.060857 -0.0726,0.680163 -0.15199,1.353475 -0.23926,2.019515 -0.0873,0.666039 -0.18221,1.324671 -0.28526,1.97559 -0.10304,0.650918 -0.21446,1.293765 -0.33434,1.928564 -0.11988,0.634799 -0.24824,1.261273 -0.38602,1.878955 -0.13779,0.617682 -0.28508,1.226678 -0.44184,1.826245 -0.15676,0.599567 -0.322903,1.189981 -0.499709,1.770435 -0.176806,0.580454 -0.364321,1.15118 -0.56224,1.711523 -0.197919,0.560344 -0.406217,1.110277 -0.626318,1.649512 -0.220102,0.539235 -0.451696,1.067787 -0.695048,1.584916 -0.243353,0.517129 -0.498689,1.022679 -0.766362,1.516703 -0.267673,0.494025 -0.547713,0.976501 -0.840775,1.446424 -0.293062,0.469923 -0.599287,0.927703 -0.918807,1.372526 -0.319521,0.444823 -0.652375,0.876802 -0.999422,1.295528 -0.347048,0.418725 -0.708011,0.823799 -1.083655,1.21543 -0.187822,0.195815 -0.379471,0.388371 -0.574642,0.577225 -0.195172,0.188854 -0.394208,0.37427 -0.596863,0.556039 -0.202655,0.181768 -0.408812,0.359776 -0.619084,0.534334 -0.210271,0.174558 -0.424316,0.345407 -0.642338,0.51263 -0.218021,0.167223 -0.440203,0.330647 -0.666109,0.49041 -0.225906,0.159763 -0.45544,0.31601 -0.689363,0.468188 -0.233924,0.152179 -0.472094,0.300465 -0.714169,0.444934 -0.242074,0.144469 -0.488096,0.285045 -0.738456,0.42168 -0.25036,0.136635 -0.505,0.269232 -0.763778,0.397908 -0.258778,0.128677 -0.521769,0.253545 -0.789099,0.374138 -0.26733,0.120593 -0.538921,0.236948 -0.814937,0.349332 -0.276016,0.112385 -0.556457,0.220993 -0.841292,0.325045 -0.284836,0.104052 -0.574376,0.203613 -0.868164,0.299207 -0.293789,0.09559 -0.592161,0.186873 -0.895036,0.273885 -0.302875,0.08701 -0.610329,0.169742 -0.922425,0.248047 -0.269159,0.06753 -0.543478,0.130233 -0.819588,0.191203 h 20.353799 c 0.0147,-0.524547 0.0226,-1.035873 0.0434,-1.569931 0.0456,-1.17042 0.10668,-2.361764 0.1881,-3.56619 0.0407,-0.602213 0.0867,-1.207684 0.13797,-1.815393 0.0513,-0.607709 0.1081,-1.217628 0.17105,-1.828829 0.063,-0.611201 0.13203,-1.223374 0.20774,-1.836064 0.0757,-0.612689 0.15797,-1.225956 0.24753,-1.83813 0.0896,-0.612175 0.18644,-1.223309 0.29094,-1.832963 0.1045,-0.609655 0.2164,-1.217496 0.33693,-1.822628 0.12053,-0.605132 0.24941,-1.207486 0.38706,-1.806092 0.13764,-0.598605 0.28443,-1.193795 0.44028,-1.78387 0.15585,-0.590075 0.32094,-1.175391 0.49609,-1.754932 0.17516,-0.57954 0.35999,-1.153306 0.55553,-1.720308 0.19553,-0.567003 0.40155,-1.127023 0.61856,-1.679484 0.21702,-0.552461 0.44513,-1.09706 0.68472,-1.632975 0.23958,-0.535916 0.49071,-1.063417 0.75395,-1.580782 0.26325,-0.517366 0.53884,-1.024542 0.82683,-1.521355 0.28799,-0.496812 0.58844,-0.983019 0.90227,-1.457275 0.31382,-0.474256 0.6411,-0.936783 0.98185,-1.386479 0.34075,-0.449695 0.69525,-0.886866 1.06402,-1.309997 0.18438,-0.211566 0.37219,-0.419703 0.56379,-0.624252 0.19159,-0.204548 0.38655,-0.405265 0.58549,-0.602547 0.19894,-0.197281 0.40181,-0.391079 0.60823,-0.580843 0.20642,-0.189763 0.41642,-0.375593 0.63046,-0.557589 0.21403,-0.181995 0.43191,-0.35984 0.6537,-0.533817 0.22179,-0.173977 0.4478,-0.343822 0.67748,-0.50953 0.22968,-0.165707 0.46303,-0.327537 0.70073,-0.484725 0.23771,-0.157188 0.47967,-0.309952 0.72554,-0.45837 0.24587,-0.148418 0.49566,-0.2921 0.74983,-0.431498 0.25416,-0.139397 0.51254,-0.2745 0.77514,-0.404626 0.2626,-0.130127 0.52981,-0.2556 0.80099,-0.376205 0.27117,-0.120605 0.54642,-0.236433 0.8263,-0.347265 0.25579,-0.101291 0.51612,-0.196976 0.77928,-0.289905 z" />
    </g>
  </g>
</svg>
